<svg xmlns="http://www.w3.org/2000/svg" viewBox="0 0 1200 700" role="img" aria-label="Generic excavator hydraulics illustration">
  <defs>
    <linearGradient id="hg" x1="0%" y1="0%" x2="0%" y2="100%">
      <stop offset="0%" stop-color="#f8fafc"/>
      <stop offset="100%" stop-color="#e2e8f0"/>
    </linearGradient>
  </defs>
  <rect width="1200" height="700" fill="url(#hg)"/>
  <rect x="40" y="480" width="1120" height="40" rx="8" fill="#cbd5e1"/>
  <ellipse cx="320" cy="520" rx="200" ry="32" fill="#94a3b8"/>
  <path d="M280 520 L380 240 L520 220 L560 360 L480 520 Z" fill="#1e3a8a" stroke="#0f172a" stroke-width="4"/>
  <path d="M520 240 L820 160 L860 200 L620 280 L540 260 Z" fill="#334155"/>
  <rect x="760" y="140" width="120" height="24" rx="4" fill="#ea580c"/>
  <path d="M640 360 L900 300 L920 340 L660 400 Z" fill="#1e40af" opacity="0.85"/>
  <circle cx="340" cy="520" r="55" fill="#0f172a" stroke="#ea580c" stroke-width="5"/>
  <circle cx="520" cy="520" r="42" fill="#0f172a" stroke="#ea580c" stroke-width="5"/>
  <path d="M200 200 Q400 120 600 180" fill="none" stroke="#ea580c" stroke-width="6" stroke-linecap="round"/>
  <circle cx="200" cy="200" r="16" fill="#ea580c"/>
</svg>
