<svg xmlns="http://www.w3.org/2000/svg" viewBox="0 0 1200 700" role="img" aria-label="Generic forestry equipment illustration">
  <rect width="1200" height="700" fill="#f0fdf4"/>
  <rect x="0" y="480" width="1200" height="220" fill="#86efac" opacity="0.35"/>
  <path d="M160 520 L180 280 L220 260 L240 520 Z" fill="#166534"/>
  <path d="M260 520 L290 200 L340 190 L330 520 Z" fill="#15803d"/>
  <path d="M400 520 L420 240 L480 230 L470 520 Z" fill="#166534"/>
  <path d="M520 360 L980 300 L1020 380 L560 460 Z" fill="#334155" stroke="#0f172a" stroke-width="4"/>
  <rect x="680" y="240" width="200" height="90" rx="12" fill="#1e3a8a"/>
  <path d="M760 240 L840 160 L860 240 Z" fill="#ea580c"/>
  <circle cx="620" cy="460" r="70" fill="#0f172a" stroke="#ea580c" stroke-width="6"/>
  <circle cx="900" cy="430" r="62" fill="#0f172a" stroke="#ea580c" stroke-width="6"/>
  <rect x="200" y="560" width="800" height="20" rx="6" fill="#cbd5e1"/>
</svg>
